<svg xmlns="http://www.w3.org/2000/svg" viewBox="0 0 120 120" width="120" height="120">
  <defs>
    <linearGradient id="poste-g" x1="0%" y1="0%" x2="100%" y2="100%">
      <stop offset="0%" style="stop-color:#FECB00"/>
      <stop offset="100%" style="stop-color:#D4A900"/>
    </linearGradient>
  </defs>
  <rect width="120" height="120" rx="20" fill="white"/>
  <rect x="2" y="2" width="116" height="116" rx="18" fill="none" stroke="url(#poste-g)" stroke-width="2"/>
  <!-- Enveloppe -->
  <rect x="32" y="38" width="56" height="38" rx="4" fill="none" stroke="#D4A900" stroke-width="2.5"/>
  <path d="M32,38 L60,58 L88,38" fill="none" stroke="#D4A900" stroke-width="2.5"/>
  <path d="M32,76 L50,60" fill="none" stroke="#D4A900" stroke-width="1.5" opacity="0.5"/>
  <path d="M88,76 L70,60" fill="none" stroke="#D4A900" stroke-width="1.5" opacity="0.5"/>
  <!-- Oiseau/avion postal -->
  <g transform="translate(70,30) rotate(-10)">
    <path d="M0,0 L15,-5 L5,0 L15,5 Z" fill="#002664"/>
  </g>
  <!-- Timbre -->
  <rect x="72" y="42" width="12" height="14" rx="1" fill="#C60C30" opacity="0.3"/>
  <rect x="74" y="44" width="8" height="10" rx="1" fill="none" stroke="#C60C30" stroke-width="0.5" stroke-dasharray="1,1"/>
  <!-- Texte -->
  <text x="60" y="95" text-anchor="middle" font-family="'Poppins',sans-serif" font-size="11" font-weight="700" fill="#D4A900">LA POSTE</text>
  <text x="60" y="107" text-anchor="middle" font-family="sans-serif" font-size="5" fill="#888">SOCIÉTÉ TCHADIENNE DES</text>
  <text x="60" y="114" text-anchor="middle" font-family="sans-serif" font-size="5" fill="#888">POSTES ET DE L'ÉPARGNE</text>
</svg>
